<svg preserveAspectRatio="none" width="100%" height="100%" overflow="visible" style="display: block;" viewBox="0 0 24 24" fill="none" xmlns="http://www.w3.org/2000/svg">
<path id="Vector" d="M12 0C9.62663 0 7.30655 0.703788 5.33316 2.02236C3.35977 3.34094 1.8217 5.21508 0.913451 7.4078C0.00519943 9.60051 -0.232441 12.0133 0.230582 14.3411C0.693605 16.6689 1.83649 18.807 3.51472 20.4853C5.19295 22.1635 7.33115 23.3064 9.65892 23.7694C11.9867 24.2324 14.3995 23.9948 16.5922 23.0866C18.7849 22.1783 20.6591 20.6402 21.9776 18.6668C23.2962 16.6934 24 14.3734 24 12C23.9965 8.81848 22.7311 5.76829 20.4814 3.51862C18.2317 1.26894 15.1815 0.00352914 12 0ZM12 21.3333C10.154 21.3333 8.34954 20.7859 6.81468 19.7604C5.27982 18.7348 4.08355 17.2772 3.37713 15.5717C2.67071 13.8663 2.48588 11.9896 2.84601 10.1792C3.20614 8.36867 4.09505 6.70563 5.40034 5.40034C6.70563 4.09505 8.36867 3.20613 10.1792 2.846C11.9896 2.48587 13.8663 2.67071 15.5717 3.37712C17.2772 4.08354 18.7348 5.27982 19.7604 6.81468C20.7859 8.34953 21.3333 10.154 21.3333 12C21.3307 14.4745 20.3465 16.847 18.5967 18.5967C16.847 20.3465 14.4745 21.3307 12 21.3333ZM17.7778 12C17.7778 12.3536 17.6373 12.6928 17.3873 12.9428C17.1372 13.1929 16.7981 13.3333 16.4444 13.3333H13.3333V16.4444C13.3333 16.7981 13.1929 17.1372 12.9428 17.3872C12.6928 17.6373 12.3536 17.7778 12 17.7778C11.6464 17.7778 11.3072 17.6373 11.0572 17.3872C10.8071 17.1372 10.6667 16.7981 10.6667 16.4444V13.3333H7.55556C7.20194 13.3333 6.8628 13.1929 6.61275 12.9428C6.3627 12.6928 6.22223 12.3536 6.22223 12C6.22223 11.6464 6.3627 11.3072 6.61275 11.0572C6.8628 10.8071 7.20194 10.6667 7.55556 10.6667H10.6667V7.55555C10.6667 7.20193 10.8071 6.86279 11.0572 6.61275C11.3072 6.3627 11.6464 6.22222 12 6.22222C12.3536 6.22222 12.6928 6.3627 12.9428 6.61275C13.1929 6.86279 13.3333 7.20193 13.3333 7.55555V10.6667H16.4444C16.7981 10.6667 17.1372 10.8071 17.3873 11.0572C17.6373 11.3072 17.7778 11.6464 17.7778 12Z" fill="var(--fill-0, black)"/>
</svg>
