<svg preserveAspectRatio="none" width="100%" height="100%" overflow="visible" style="display: block;" viewBox="0 0 24 24" fill="none" xmlns="http://www.w3.org/2000/svg">
<path id="Vector" d="M16.4989 9.38778L13.8889 12L16.5022 14.6122C16.7527 14.8627 16.8934 15.2024 16.8934 15.5567C16.8934 15.9109 16.7527 16.2506 16.5022 16.5011C16.2517 16.7516 15.912 16.8923 15.5578 16.8923C15.2035 16.8923 14.8638 16.7516 14.6133 16.5011L12 13.8889L9.38778 16.5022C9.1373 16.7527 8.79757 16.8934 8.44334 16.8934C8.0891 16.8934 7.74937 16.7527 7.49889 16.5022C7.24841 16.2517 7.10769 15.912 7.10769 15.5578C7.10769 15.2035 7.24841 14.8638 7.49889 14.6133L10.1111 12L7.50111 9.38778C7.37709 9.26375 7.27871 9.11651 7.21158 8.95446C7.14446 8.79241 7.10991 8.61873 7.10991 8.44333C7.10991 8.0891 7.25063 7.74937 7.50111 7.49889C7.7516 7.24841 8.09132 7.10769 8.44556 7.10769C8.79979 7.10769 9.13952 7.24841 9.39 7.49889L12 10.1111L14.6122 7.49778C14.8627 7.24729 15.2024 7.10657 15.5567 7.10657C15.9109 7.10657 16.2506 7.24729 16.5011 7.49778C16.7516 7.74826 16.8923 8.08799 16.8923 8.44222C16.8923 8.79646 16.7516 9.13618 16.5011 9.38667L16.4989 9.38778ZM24 12C24 14.3734 23.2962 16.6934 21.9776 18.6668C20.6591 20.6402 18.7849 22.1783 16.5922 23.0866C14.3995 23.9948 11.9867 24.2324 9.65892 23.7694C7.33115 23.3064 5.19295 22.1635 3.51472 20.4853C1.83649 18.807 0.693605 16.6689 0.230582 14.3411C-0.232441 12.0133 0.00519943 9.60051 0.913451 7.4078C1.8217 5.21508 3.35977 3.34094 5.33316 2.02236C7.30655 0.703788 9.62663 0 12 0C15.1815 0.00352914 18.2317 1.26894 20.4814 3.51862C22.7311 5.76829 23.9965 8.81848 24 12ZM21.3333 12C21.3333 10.154 20.7859 8.34953 19.7604 6.81468C18.7348 5.27982 17.2772 4.08354 15.5717 3.37712C13.8663 2.67071 11.9896 2.48587 10.1792 2.846C8.36867 3.20613 6.70563 4.09505 5.40034 5.40034C4.09505 6.70563 3.20614 8.36867 2.84601 10.1792C2.48588 11.9896 2.67071 13.8663 3.37713 15.5717C4.08355 17.2772 5.27982 18.7348 6.81468 19.7604C8.34954 20.7859 10.154 21.3333 12 21.3333C14.4745 21.3307 16.847 20.3465 18.5967 18.5967C20.3465 16.847 21.3307 14.4745 21.3333 12Z" fill="var(--fill-0, black)"/>
</svg>
